<?xml version="1.0" encoding="UTF-8" standalone="no"?>
<svg
   xmlns:dc="http://purl.org/dc/elements/1.1/"
   xmlns:cc="http://creativecommons.org/ns#"
   xmlns:rdf="http://www.w3.org/1999/02/22-rdf-syntax-ns#"
   xmlns:svg="http://www.w3.org/2000/svg"
   xmlns="http://www.w3.org/2000/svg"
   xmlns:sodipodi="http://sodipodi.sourceforge.net/DTD/sodipodi-0.dtd"
   xmlns:inkscape="http://www.inkscape.org/namespaces/inkscape"
   version="1.1"
   width="210"
   height="140"
   id="svg6353"
   sodipodi:docname="relay.svg"
   inkscape:version="0.92.4 (5da689c313, 2019-01-14)">
  <metadata
     id="metadata6359">
    <rdf:RDF>
      <cc:Work
         rdf:about="">
        <dc:format>image/svg+xml</dc:format>
        <dc:type
           rdf:resource="http://purl.org/dc/dcmitype/StillImage" />
        <dc:title></dc:title>
      </cc:Work>
    </rdf:RDF>
  </metadata>
  <defs
     id="defs6357" />
  <sodipodi:namedview
     pagecolor="#ffffff"
     bordercolor="#666666"
     borderopacity="1"
     objecttolerance="10"
     gridtolerance="10"
     guidetolerance="10"
     inkscape:pageopacity="0"
     inkscape:pageshadow="2"
     inkscape:window-width="1920"
     inkscape:window-height="986"
     id="namedview6355"
     showgrid="false"
     inkscape:zoom="3.1791653"
     inkscape:cx="186.71363"
     inkscape:cy="65.287739"
     inkscape:window-x="-11"
     inkscape:window-y="-11"
     inkscape:window-maximized="1"
     inkscape:current-layer="svg6353" />
  <text
     x="306.0914"
     y="12.68399"
     id="text4991" />
  <g
     id="Layer1089"
     transform="translate(0,-100.00011)" />
  <g
     id="Layer1090"
     transform="translate(0,-100.00011)" />
  <g
     id="Layer1091"
     transform="translate(0,-100.00011)" />
  <g
     id="Layer1092"
     transform="translate(0,-100.00011)" />
  <g
     id="Layer1093"
     transform="translate(0,-100.00011)" />
  <g
     id="Layer1094"
     transform="translate(0,-100.00011)" />
  <g
     id="Layer1096"
     transform="translate(0,-100.00011)" />
  <g
     id="g14253"
     transform="matrix(4.017482,0,0,3.9431244,-865.77749,-408.40698)">
    <g
       id="Layer1066">
      <path
         inkscape:connector-curvature="0"
         id="path4720"
         style="fill:#1b1918;fill-rule:evenodd"
         d="m 265.3856,137.0964 h -47.2627 c -0.7627,0 -1.3867,-0.6898 -1.3867,-1.533 v -27.593 c 0,-0.8431 0.624,-1.5329 1.3867,-1.5329 h 47.2627 c 0.7627,0 1.3867,0.6898 1.3867,1.5329 v 27.593 c 0,0.8432 -0.624,1.533 -1.3867,1.533 z" />
      <path
         inkscape:connector-curvature="0"
         id="path4722"
         style="fill:#ffec00;fill-rule:evenodd;stroke:#ffec00;stroke-width:0.56690001;stroke-linecap:butt;stroke-linejoin:miter;stroke-dasharray:none"
         d="m 257.3919,131.9621 h -24.614 v -18.5462 h 24.614 z" />
      <path
         inkscape:connector-curvature="0"
         id="path4724"
         style="fill:#71859e;fill-rule:evenodd;stroke:#1b1918;stroke-width:0.21600001;stroke-linecap:butt;stroke-linejoin:miter;stroke-dasharray:none"
         d="m 254.7002,130.8078 h -21.7793 v -17.165 h 21.7793 z" />
      <g
         id="Layer1067" />
      <path
         inkscape:connector-curvature="0"
         id="path4727"
         style="fill:#009ee0;fill-rule:evenodd"
         d="M 257.1312,131.6681 H 233.14 v -17.72 h 23.9912 z" />
      <text
         id="text4731"
         y="135.4151"
         x="242.42529">
        <tspan
           style="font-size:3px;font-family:Arial;fill:#ffec00"
           id="tspan4729"
           font-size="3.0000">Keyestudio</tspan>
      </text>
      <text
         id="text4735"
         y="133.9003"
         x="233.476">
        <tspan
           style="font-size:1.5px;font-family:Arial;fill:#ffec00"
           id="tspan4733"
           font-size="1.5000">Ry1</tspan>
      </text>
      <text
         id="text4739"
         y="109.6513"
         x="258.98239">
        <tspan
           style="font-size:2.5px;font-family:Arial;fill:#ffec00"
           id="tspan4737"
           font-size="2.5000">Relay</tspan>
      </text>
      <text
         id="text4743"
         y="112.8888"
         x="260.41559">
        <tspan
           style="font-size:1.5px;font-family:Arial;fill:#ffec00"
           id="tspan4741"
           font-size="1.5000">CON2</tspan>
      </text>
      <text
         id="text4747"
         y="108.0197"
         x="242.4556">
        <tspan
           style="font-size:1.5px;font-family:Arial;fill:#ffec00"
           id="tspan4745"
           font-size="1.5000">Q1</tspan>
      </text>
      <text
         id="text4751"
         y="108.0058"
         x="250.35719">
        <tspan
           style="font-size:1.5px;font-family:Arial;fill:#ffec00"
           id="tspan4749"
           font-size="1.5000">D1</tspan>
      </text>
      <text
         id="text4755"
         y="112.8876"
         x="237.4227">
        <tspan
           style="font-size:1.5px;font-family:Arial;fill:#ffec00"
           id="tspan4753"
           font-size="1.5000">R1</tspan>
      </text>
      <path
         inkscape:connector-curvature="0"
         id="path4757"
         style="fill:none"
         d="M 248.7297,112.0518 Z" />
      <path
         inkscape:connector-curvature="0"
         id="path4759"
         style="fill:#ffec00;fill-rule:evenodd;stroke:#ffec00;stroke-width:0.21600001;stroke-linecap:butt;stroke-linejoin:miter;stroke-dasharray:none"
         d="m 254.4194,112.0517 h -7.4135 v -3.5477 h 7.4135 z" />
      <path
         inkscape:connector-curvature="0"
         id="path4761"
         style="fill:#1b1918;fill-rule:evenodd"
         d="m 254.1161,111.6928 v -2.8968 h -6.8815 v 2.8968 z" />
      <g
         id="Layer1068">
        <path
           inkscape:connector-curvature="0"
           id="path4763"
           style="fill:#6e7071;fill-rule:evenodd;stroke:#1b1918;stroke-width:0.21600001;stroke-linecap:butt;stroke-linejoin:miter;stroke-dasharray:none"
           d="m 242.7626,112.1179 -0.0542,-3.8091 1.6716,-0.0304 0.0543,3.8091 z" />
        <path
           inkscape:connector-curvature="0"
           id="path4765"
           style="fill:#d9dadb;fill-rule:evenodd;stroke:#1b1918;stroke-width:0.21600001;stroke-linecap:butt;stroke-linejoin:miter;stroke-dasharray:none"
           d="m 244.4175,110.9107 -0.0412,-1.3317 0.8324,-0.007 0.0412,1.3316 z" />
        <path
           inkscape:connector-curvature="0"
           id="path4767"
           style="fill:#d9dadb;fill-rule:evenodd;stroke:#1b1918;stroke-width:0.21600001;stroke-linecap:butt;stroke-linejoin:miter;stroke-dasharray:none"
           d="m 242.1005,111.8202 -0.006,-0.4026 0.6577,-0.0119 0.006,0.4025 z" />
        <path
           inkscape:connector-curvature="0"
           id="path4769"
           style="fill:#d9dadb;fill-rule:evenodd;stroke:#1b1918;stroke-width:0.21600001;stroke-linecap:butt;stroke-linejoin:miter;stroke-dasharray:none"
           d="m 242.1005,109.0111 -0.006,-0.4026 0.6577,-0.012 0.006,0.4026 z" />
      </g>
      <path
         inkscape:connector-curvature="0"
         id="path4772"
         style="fill:none"
         d="M 231.8994,109.7068 Z" />
      <path
         inkscape:connector-curvature="0"
         id="path4774"
         style="fill:#ffec00;fill-rule:evenodd;stroke:#1b1918;stroke-width:0.21600001;stroke-linecap:butt;stroke-linejoin:miter;stroke-dasharray:none"
         d="m 240.7478,108.796 h -4.9366 v 2.686 h 4.9366 z" />
      <path
         inkscape:connector-curvature="0"
         id="path4776"
         style="fill:#3b3b3b;fill-rule:evenodd"
         d="m 240.4513,111.2979 v -2.3176 h -4.3436 v 2.3176 z" />
      <path
         inkscape:connector-curvature="0"
         id="path4778"
         style="fill:#dcdcdc;fill-rule:evenodd"
         d="m 236.5767,109.0585 v -0.078 h -0.4689 v 2.3185 h 0.4681 c 0.033,-0.198 0.0727,-0.4341 0.0727,-0.6541 9e-4,-0.2572 -0.0282,-1.3631 -0.0719,-1.5864 z" />
      <path
         inkscape:connector-curvature="0"
         id="path4780"
         style="fill:#dcdcdc;fill-rule:evenodd"
         d="m 239.9097,110.6447 c 0,0.2199 0.0407,0.4542 0.0758,0.6541 h 0.4666 v -2.3185 h -0.469 v 0.078 c -0.0443,0.2235 -0.0734,1.3294 -0.0734,1.5864 z" />
      <text
         id="text4784"
         y="112.8874"
         x="226.93961">
        <tspan
           style="font-size:1.5px;font-family:Arial;fill:#ffec00"
           id="tspan4782"
           font-size="1.5000">Led</tspan>
      </text>
      <path
         inkscape:connector-curvature="0"
         id="path4786"
         style="fill:#ffec00;fill-rule:evenodd;stroke:#1b1918;stroke-width:0.21600001;stroke-linecap:butt;stroke-linejoin:miter;stroke-dasharray:none"
         d="m 231.6849,108.796 v 2.6156 h -5.4867 v -2.6156 z" />
      <path
         inkscape:connector-curvature="0"
         id="path4788"
         style="fill:#fdd5a5;fill-rule:evenodd"
         d="m 231.5257,111.2664 v -2.3229 h -5.16 v 2.3229 z" />
      <path
         inkscape:connector-curvature="0"
         id="path4790"
         style="fill:#ffffff;fill-rule:evenodd"
         d="m 231.5257,108.9783 v -0.0345 h -5.16 v 0.0345 z" />
      <path
         inkscape:connector-curvature="0"
         id="path4792"
         style="fill:#dcdcdc;fill-rule:evenodd"
         d="m 226.9238,109.021 v -0.0774 h -0.5571 v 2.323 h 0.5561 c 0.0392,-0.1985 0.0864,-0.4351 0.0864,-0.6554 0,-0.2567 -0.0346,-1.3662 -0.0854,-1.5902 z" />
      <path
         inkscape:connector-curvature="0"
         id="path4794"
         style="fill:#dcdcdc;fill-rule:evenodd"
         d="m 230.8823,110.6112 c 0,0.2203 0.0482,0.4551 0.0893,0.6554 h 0.5552 v -2.323 h -0.557 v 0.0774 c -0.0529,0.224 -0.0875,1.3317 -0.0875,1.5902 z" />
      <path
         inkscape:connector-curvature="0"
         id="path4796"
         style="fill:#ffffff;fill-rule:evenodd"
         d="m 226.9217,108.9783 v -0.0345 h -0.556 v 0.0345 z" />
      <path
         inkscape:connector-curvature="0"
         id="path4798"
         style="fill:#ffffff;fill-rule:evenodd"
         d="m 231.5257,108.9783 v -0.0345 h -0.556 v 0.0345 z" />
      <path
         inkscape:connector-curvature="0"
         id="path4800"
         style="fill:none"
         d="M 226.8601,111.2611 Z" />
      <path
         inkscape:connector-curvature="0"
         id="path4802"
         style="fill:#ffffff;fill-rule:evenodd;stroke:#1b1918;stroke-width:0.21600001;stroke-linecap:butt;stroke-linejoin:miter;stroke-dasharray:none"
         d="m 223.543,135.8065 a 1.5623,1.6424 0 0 1 -1.5622,-1.6424 1.5623,1.6424 0 1 1 1.5622,1.6424 z" />
      <path
         inkscape:connector-curvature="0"
         id="path4804"
         style="fill:#ffffff;fill-rule:evenodd;stroke:#1b1918;stroke-width:0.21600001;stroke-linecap:butt;stroke-linejoin:miter;stroke-dasharray:none"
         d="m 223.4169,110.7442 a 1.5623,1.6424 0 0 1 -1.5623,-1.6425 1.5623,1.6424 0 1 1 1.5623,1.6425 z" />
      <path
         inkscape:connector-curvature="0"
         id="path4806"
         style="fill:#ffffff;fill-rule:evenodd"
         d="m 233.8776,108.7961 a 2.2434,2.3585 0 0 1 -2.2433,-2.3586 2.2434,2.3585 0 1 1 2.2433,2.3586 z" />
      <path
         inkscape:connector-curvature="0"
         id="path4808"
         style="fill:#ffffff;fill-rule:evenodd"
         d="m 233.8776,139.4549 a 2.2434,2.3585 0 0 1 -2.2433,-2.3586 2.2434,2.3585 0 1 1 2.2433,2.3586 z" />
      <g
         id="Layer1069">
        <path
           inkscape:connector-curvature="0"
           id="path4810"
           style="fill:#ffffff;fill-rule:evenodd;stroke:#1b1918;stroke-width:0.56690001;stroke-linecap:butt;stroke-linejoin:miter;stroke-dasharray:none"
           d="m 247.0273,110.9776 a 0.725,0.725 0 0 1 -0.7251,-0.7251 0.725,0.725 0 1 1 0.7251,0.7251 z" />
        <path
           inkscape:connector-curvature="0"
           id="path4812"
           style="fill:#d9dadb;fill-rule:evenodd"
           d="m 247.0273,110.73 a 0.4775,0.4775 0 0 1 -0.4775,-0.4775 0.4775,0.4775 0 1 1 0.4775,0.4775 z" />
      </g>
      <g
         id="Layer1070">
        <path
           inkscape:connector-curvature="0"
           id="path4815"
           style="fill:#ffffff;fill-rule:evenodd;stroke:#1b1918;stroke-width:0.56690001;stroke-linecap:butt;stroke-linejoin:miter;stroke-dasharray:none"
           d="m 254.5391,111.037 a 0.7929,0.7929 0 0 0 0.793,-0.793 0.7929,0.7929 0 1 0 -0.793,0.793 z" />
        <path
           inkscape:connector-curvature="0"
           id="path4817"
           style="fill:#d9dadb;fill-rule:evenodd"
           d="m 254.5391,110.7662 a 0.5222,0.5222 0 0 0 0.5222,-0.5222 0.5222,0.5222 0 1 0 -0.5222,0.5222 z" />
      </g>
      <path
         inkscape:connector-curvature="0"
         id="path4820"
         style="fill:#ffffff;fill-rule:evenodd"
         d="m 253.2958,110.2103 v -0.028 h -4.4404 v 0.028 z" />
      <path
         inkscape:connector-curvature="0"
         id="path4822"
         style="fill:#ffffff;fill-rule:evenodd"
         d="m 249.3339,110.2103 v -0.028 h -0.4785 v 0.028 z" />
      <path
         inkscape:connector-curvature="0"
         id="path4824"
         style="fill:#ffffff;fill-rule:evenodd"
         d="m 253.2958,110.2103 v -0.028 h -0.4785 v 0.028 z" />
      <path
         inkscape:connector-curvature="0"
         id="path4826"
         style="fill:#3b3b3b;fill-rule:evenodd"
         d="m 253.5779,111.3623 v -2.2357 h -5.3601 v 2.2357 z" />
      <path
         inkscape:connector-curvature="0"
         id="path4828"
         style="fill:#ffffff;fill-rule:evenodd"
         d="M 252.9201,111.2396 H 248.26 c -0.0136,0 -0.0246,-0.011 -0.0246,-0.0246 v -0.1534 c 0,-0.0136 0.011,-0.0246 0.0246,-0.0246 h 4.6552 c 0.0136,0 0.0246,0.011 0.0246,0.0246 v 0.1582 c 0,0.0109 -0.009,0.0198 -0.0197,0.0198 z" />
      <path
         inkscape:connector-curvature="0"
         id="path4830"
         style="fill:#ffffff;fill-rule:evenodd"
         d="m 252.9398,109.432 h -4.7044 v -0.2027 h 4.7044 z" />
      <path
         inkscape:connector-curvature="0"
         id="path4832"
         style="fill:#c4c6c8;fill-rule:evenodd"
         d="m 253.6047,111.247 v -2.0055 c 0,-0.0633 -0.0518,-0.1149 -0.1152,-0.1149 h -0.4342 c -0.0634,0 -0.1151,0.0516 -0.1151,0.1149 v 2.0055 c 0,0.0636 0.0517,0.1153 0.1151,0.1153 h 0.4342 c 0.0634,0 0.1152,-0.0517 0.1152,-0.1153 z" />
      <path
         inkscape:connector-curvature="0"
         id="path4834"
         style="fill:#1b1918;fill-rule:evenodd"
         d="m 252.9399,111.037 h -4.7045 v -1.605 h 4.7045 z" />
      <path
         inkscape:connector-curvature="0"
         id="path4836"
         style="fill:#c4c6c8;fill-rule:evenodd"
         d="m 248.8259,111.2284 v -2.0055 c 0,-0.0633 -0.0517,-0.1149 -0.1151,-0.1149 h -0.4343 c -0.0634,0 -0.1151,0.0516 -0.1151,0.1149 v 2.0055 c 0,0.0636 0.0517,0.1153 0.1151,0.1153 h 0.4343 c 0.0634,0 0.1151,-0.0517 0.1151,-0.1153 z" />
      <path
         inkscape:connector-curvature="0"
         id="path4838"
         style="fill:#eceded;fill-rule:evenodd"
         d="m 248.3229,110.4071 h -1.317 v -0.3093 h 1.317 z" />
      <path
         inkscape:connector-curvature="0"
         id="path4840"
         style="fill:#eceded;fill-rule:evenodd"
         d="m 253.094,110.4071 h 1.3171 v -0.3093 h -1.3171 z" />
      <text
         id="text4844"
         y="129.30051"
         x="236.5649">
        <tspan
           style="font-size:2px;font-family:Arial;fill:#ffffff"
           id="tspan4842"
           font-size="2.0000">SONCLE</tspan>
      </text>
      <text
         id="text4848"
         y="121.2637"
         x="233.67641">
        <tspan
           style="font-size:2px;font-family:Arial;fill:#ffffff"
           id="tspan4846"
           font-size="2.0000">10A 250VAC 10A 125VAC</tspan>
      </text>
      <text
         id="text4852"
         y="118.8452"
         x="233.88451">
        <tspan
           style="font-size:2px;font-family:Arial;fill:#ffffff"
           id="tspan4850"
           font-size="2.0000">10A 30VAC 10A 25VAC</tspan>
      </text>
      <text
         id="text4868"
         y="116.2733"
         x="233.5764">
        <tspan
           style="font-size:2.5px;font-family:Arial;fill:#ffffff"
           id="tspan4854"
           font-size="2.5000">SRD</tspan>
        <tspan
           style="font-size:2.5px;font-family:'宋体';fill:#ffffff"
           id="tspan4856"
           font-size="2.5000">-</tspan>
        <tspan
           style="font-size:2.5px;font-family:Arial;fill:#ffffff"
           id="tspan4858"
           font-size="2.5000">05VDC</tspan>
        <tspan
           style="font-size:2.5px;font-family:'宋体';fill:#ffffff"
           id="tspan4860"
           font-size="2.5000">-</tspan>
        <tspan
           style="font-size:2.5px;font-family:Arial;fill:#ffffff"
           id="tspan4862"
           font-size="2.5000">SL</tspan>
        <tspan
           style="font-size:2.5px;font-family:'宋体';fill:#ffffff"
           id="tspan4864"
           font-size="2.5000">-</tspan>
        <tspan
           style="font-size:2.5px;font-family:'宋体';fill:#ffffff"
           id="tspan4866"
           font-size="2.5000">C</tspan>
      </text>
      <path
         inkscape:connector-curvature="0"
         id="path4870"
         style="fill:#ffec00;fill-rule:evenodd;stroke:#ffec00;stroke-width:0.56690001;stroke-linecap:butt;stroke-linejoin:miter;stroke-dasharray:none"
         d="m 266.2786,131.9767 h -8.1034 v -18.4689 h 8.1034 z" />
      <g
         id="Layer1071">
        <path
           inkscape:connector-curvature="0"
           id="path4872"
           style="fill:#009ee0;fill-rule:evenodd;stroke:#009ee0;stroke-width:0.21600001;stroke-linecap:butt;stroke-linejoin:miter;stroke-dasharray:none"
           d="m 265.9631,114.1138 v 17.2973 h -7.5057 v -17.2973 z" />
        <path
           inkscape:connector-curvature="0"
           id="path4874"
           style="fill:#008bd0;fill-rule:evenodd;stroke:#008bd0;stroke-width:0.21600001;stroke-linecap:butt;stroke-linejoin:miter;stroke-dasharray:none"
           d="m 261.2137,131.4111 h -2.7563 v -17.2973 h 2.7563 z" />
        <path
           inkscape:connector-curvature="0"
           id="path4876"
           style="fill:#84756f;fill-rule:evenodd;stroke:#1b1918;stroke-width:0.21600001;stroke-linecap:butt;stroke-linejoin:miter;stroke-dasharray:none"
           d="m 264.6278,116.8618 a 1.2839,1.5493 0 0 1 -1.2839,1.5493 1.2839,1.5493 0 1 1 1.2839,-1.5493 z" />
        <path
           inkscape:connector-curvature="0"
           id="path4878"
           style="fill:#84756f;fill-rule:evenodd;stroke:#1b1918;stroke-width:0.21600001;stroke-linecap:butt;stroke-linejoin:miter;stroke-dasharray:none"
           d="m 264.6284,122.905 a 1.2839,1.5493 0 0 1 -1.2839,1.5493 1.2839,1.5493 0 1 1 1.2839,-1.5493 z" />
        <path
           inkscape:connector-curvature="0"
           id="path4880"
           style="fill:#84756f;fill-rule:evenodd;stroke:#1b1918;stroke-width:0.21600001;stroke-linecap:butt;stroke-linejoin:miter;stroke-dasharray:none"
           d="m 264.5904,129.1396 a 1.2839,1.5493 0 0 1 -1.2839,1.5492 1.2839,1.5493 0 1 1 1.2839,-1.5492 z" />
        <path
           inkscape:connector-curvature="0"
           id="path4882"
           style="fill:#1b1918;fill-rule:evenodd;stroke:#1b1918;stroke-width:0.21600001;stroke-linecap:butt;stroke-linejoin:miter;stroke-dasharray:none"
           d="m 265.1261,126.224 v 0.0118 h -3.259 v -0.0118 z" />
        <path
           inkscape:connector-curvature="0"
           id="path4884"
           style="fill:#1b1918;fill-rule:evenodd;stroke:#1b1918;stroke-width:0.21600001;stroke-linecap:butt;stroke-linejoin:miter;stroke-dasharray:none"
           d="m 265.0881,119.9895 v 0.0118 h -3.259 v -0.0118 z" />
        <path
           inkscape:connector-curvature="0"
           id="path4886"
           style="fill:#1b1918;fill-rule:evenodd;stroke:#1b1918;stroke-width:0.21600001;stroke-linecap:butt;stroke-linejoin:miter;stroke-dasharray:none"
           d="m 259.9768,116.9497 a 0.7962,0.2982 0 0 1 -0.7962,-0.2982 0.7962,0.2982 0 1 1 0.7962,0.2982 z" />
        <path
           inkscape:connector-curvature="0"
           id="path4888"
           style="fill:#1b1918;fill-rule:evenodd;stroke:#1b1918;stroke-width:0.21600001;stroke-linecap:butt;stroke-linejoin:miter;stroke-dasharray:none"
           d="m 259.8356,123.0607 a 0.7962,0.2982 0 0 1 -0.7962,-0.2982 0.7962,0.2982 0 1 1 0.7962,0.2982 z" />
        <path
           inkscape:connector-curvature="0"
           id="path4890"
           style="fill:#1b1918;fill-rule:evenodd;stroke:#1b1918;stroke-width:0.21600001;stroke-linecap:butt;stroke-linejoin:miter;stroke-dasharray:none"
           d="m 259.9768,129.2698 a 0.7962,0.2982 0 0 1 -0.7962,-0.2982 0.7962,0.2982 0 1 1 0.7962,0.2982 z" />
      </g>
      <g
         id="Layer1072">
        <g
           id="Layer1073">
          <g
             id="Layer1074">
            <path
               inkscape:connector-curvature="0"
               id="path4893"
               style="fill:#ffec00;fill-rule:evenodd"
               d="m 232.5141,129.2969 h -15.5072 v -13.4047 h 15.5072 z" />
            <path
               inkscape:connector-curvature="0"
               id="path4895"
               style="fill:#1b1918;fill-rule:evenodd"
               d="m 232.4209,129.1778 h -15.3208 v -13.1667 h 15.3208 z" />
            <g
               id="Layer1075">
              <path
                 inkscape:connector-curvature="0"
                 id="path4897"
                 style="fill:#565757;fill-rule:evenodd"
                 d="m 217.1001,129.1317 v -13.0745 h 15.3208 v 13.0745 z" />
              <g
                 id="Layer1076" />
              <path
                 inkscape:connector-curvature="0"
                 id="path4900"
                 style="fill:#3b3b3b;fill-rule:evenodd"
                 d="m 218.3768,128.3145 v -11.4401 h 12.7674 v 11.4401 z" />
            </g>
            <path
               inkscape:connector-curvature="0"
               id="path4903"
               style="fill:#1b1918;fill-rule:evenodd"
               d="m 232.3601,128.9881 h -15.1385 v -12.6704 h 15.1385 z" />
            <path
               inkscape:connector-curvature="0"
               id="path4905"
               style="fill:#1b1918;fill-rule:evenodd"
               d="M 231.9597,128.6529 H 217.622 v -12.0001 h 14.3377 z" />
          </g>
          <path
             inkscape:connector-curvature="0"
             id="path4908"
             style="fill:#3b3b3b;fill-rule:evenodd"
             d="m 221.8274,129.7913 a 0.8398,0.4478 0 0 1 -0.8399,-0.4477 0.8398,0.4478 0 1 1 0.8399,0.4477 z" />
          <path
             inkscape:connector-curvature="0"
             id="path4910"
             style="fill:#3b3b3b;fill-rule:evenodd"
             d="m 221.8274,116.3887 a 0.8398,0.4478 0 0 1 -0.8399,-0.4478 0.8398,0.4478 0 1 1 0.8399,0.4478 z" />
          <path
             inkscape:connector-curvature="0"
             id="path4912"
             style="fill:#1b1918;fill-rule:evenodd"
             d="m 219.891,128.9761 h -0.4231 v 0.3674 h 0.4231 z" />
          <path
             inkscape:connector-curvature="0"
             id="path4914"
             style="fill:#1b1918;fill-rule:evenodd"
             d="m 219.891,115.7084 h -0.4231 v 0.3675 h 0.4231 z" />
        </g>
        <g
           id="Layer1077">
          <g
             id="Layer1078">
            <path
               inkscape:connector-curvature="0"
               id="path4917"
               style="fill:#ffec00;fill-rule:evenodd"
               d="m 232.5141,129.2969 h -15.5072 v -13.4047 h 15.5072 z" />
            <path
               inkscape:connector-curvature="0"
               id="path4919"
               style="fill:#1b1918;fill-rule:evenodd"
               d="m 232.4209,129.1778 h -15.3208 v -13.1667 h 15.3208 z" />
            <g
               id="Layer1079">
              <path
                 inkscape:connector-curvature="0"
                 id="path4921"
                 style="fill:#565757;fill-rule:evenodd"
                 d="m 217.1001,129.1317 v -13.0745 h 15.3208 v 13.0745 z" />
              <g
                 id="Layer1080" />
              <path
                 inkscape:connector-curvature="0"
                 id="path4924"
                 style="fill:#3b3b3b;fill-rule:evenodd"
                 d="m 218.3768,128.3145 v -11.4401 h 12.7674 v 11.4401 z" />
            </g>
            <path
               inkscape:connector-curvature="0"
               id="path4927"
               style="fill:#1b1918;fill-rule:evenodd"
               d="m 232.3601,128.9881 h -15.1385 v -12.6704 h 15.1385 z" />
            <path
               inkscape:connector-curvature="0"
               id="path4929"
               style="fill:#1b1918;fill-rule:evenodd"
               d="M 231.9597,128.6529 H 217.622 v -12.0001 h 14.3377 z" />
          </g>
          <path
             inkscape:connector-curvature="0"
             id="path4932"
             style="fill:#3b3b3b;fill-rule:evenodd"
             d="m 221.8274,129.7913 a 0.8398,0.4478 0 0 1 -0.8399,-0.4477 0.8398,0.4478 0 1 1 0.8399,0.4477 z" />
          <path
             inkscape:connector-curvature="0"
             id="path4934"
             style="fill:#3b3b3b;fill-rule:evenodd"
             d="m 221.8274,116.3887 a 0.8398,0.4478 0 0 1 -0.8399,-0.4478 0.8398,0.4478 0 1 1 0.8399,0.4478 z" />
          <path
             inkscape:connector-curvature="0"
             id="path4936"
             style="fill:#1b1918;fill-rule:evenodd"
             d="m 219.891,128.9761 h -0.4231 v 0.3674 h 0.4231 z" />
          <path
             inkscape:connector-curvature="0"
             id="path4938"
             style="fill:#1b1918;fill-rule:evenodd"
             d="m 219.891,115.7084 h -0.4231 v 0.3675 h 0.4231 z" />
        </g>
      </g>
    </g>
    <path
       inkscape:connector-curvature="0"
       id="path5269"
       style="fill:#0096ff;fill-opacity:1;fill-rule:evenodd;stroke-width:0.79483342"
       d="m 232.43234,117.29225 v 10.38371 c 0,0.43764 -0.38033,0.79549 -0.84557,0.79549 h -13.45718 c -0.46523,0 -0.84556,-0.35785 -0.84556,-0.79549 v -10.38371 c 0,-0.43764 0.38033,-0.7955 0.84556,-0.7955 h 13.45718 c 0.46524,0 0.84557,0.35786 0.84557,0.7955 z" />
  </g>
</svg>
